<?xml version="1.0" encoding="UTF-8"?>
<svg xmlns="http://www.w3.org/2000/svg" xmlns:xlink="http://www.w3.org/1999/xlink" width="32px" height="32px" viewBox="0 0 32 32" version="1.1">
<g id="surface1">
<rect x="0" y="0" width="32" height="32" style="fill:rgb(100%,93.333334%,80.784315%);fill-opacity:1;stroke:none;"/>
<path style=" stroke:none;fill-rule:nonzero;fill:rgb(79.607844%,61.960787%,43.921569%);fill-opacity:1;" d="M 20.808594 17.910156 L 24.5 13.824219 C 24.5 13.824219 19.273438 16.636719 18.15625 15.867188 L 20.808594 17.910156 "/>
<path style=" stroke:none;fill-rule:nonzero;fill:rgb(68.235296%,29.411766%,16.862746%);fill-opacity:1;" d="M 13.925781 15.847656 L 3.246094 6.371094 L 3.773438 10.160156 L 11.152344 17.910156 Z M 13.925781 15.847656 "/>
<path style=" stroke:none;fill-rule:nonzero;fill:rgb(10.588235%,12.941177%,9.803922%);fill-opacity:1;" d="M 11.152344 17.910156 L 11.433594 16.5625 L 5.558594 11.511719 C 5.558594 11.511719 3.117188 9.65625 3.867188 6.03125 L 14.304688 15.046875 L 15.054688 14.371094 L 2.597656 3.464844 L 2.597656 7.886719 C 2.597656 7.886719 2.457031 10.453125 4.808594 12.351562 Z M 11.152344 17.910156 "/>
<path style=" stroke:none;fill-rule:nonzero;fill:rgb(10.588235%,12.941177%,9.803922%);fill-opacity:1;" d="M 20.808594 17.910156 L 20.527344 16.5625 L 26.402344 11.511719 C 26.402344 11.511719 28.84375 9.65625 28.09375 6.035156 L 17.660156 15.050781 L 16.910156 14.375 L 29.363281 3.464844 L 29.363281 7.886719 C 29.363281 7.886719 29.503906 10.453125 27.152344 12.351562 Z M 20.808594 17.910156 "/>
<path style=" stroke:none;fill-rule:nonzero;fill:rgb(10.980392%,13.333334%,10.196079%);fill-opacity:1;" d="M 22.246094 27.640625 C 22.246094 27.292969 21.929688 27.011719 21.539062 27.011719 C 21.148438 27.011719 20.832031 27.292969 20.832031 27.640625 C 20.832031 27.992188 21.148438 28.273438 21.539062 28.273438 C 21.929688 28.273438 22.246094 27.992188 22.246094 27.640625 Z M 22.246094 27.640625 "/>
<path style=" stroke:none;fill-rule:nonzero;fill:rgb(10.980392%,13.333334%,10.196079%);fill-opacity:1;" d="M 23.40625 5.441406 C 23.40625 5.09375 23.089844 4.8125 22.699219 4.8125 C 22.3125 4.8125 21.996094 5.09375 21.996094 5.441406 C 21.996094 5.792969 22.3125 6.074219 22.699219 6.074219 C 23.089844 6.074219 23.40625 5.792969 23.40625 5.441406 Z M 23.40625 5.441406 "/>
<path style=" stroke:none;fill-rule:nonzero;fill:rgb(68.235296%,29.411766%,16.862746%);fill-opacity:1;" d="M 25.910156 16.753906 C 26.195312 16.753906 26.453125 16.90625 26.5625 17.144531 C 26.671875 17.378906 26.609375 17.652344 26.40625 17.832031 C 26.207031 18.011719 25.902344 18.066406 25.640625 17.96875 C 25.375 17.871094 25.203125 17.640625 25.203125 17.386719 C 25.203125 17.21875 25.277344 17.054688 25.410156 16.9375 C 25.542969 16.820312 25.722656 16.753906 25.910156 16.753906 M 25.910156 15.8125 C 25.199219 15.8125 24.558594 16.195312 24.289062 16.78125 C 24.015625 17.371094 24.164062 18.046875 24.667969 18.496094 C 25.167969 18.949219 25.925781 19.082031 26.582031 18.839844 C 27.238281 18.59375 27.664062 18.019531 27.664062 17.386719 C 27.664062 16.515625 26.878906 15.8125 25.910156 15.8125 Z M 25.910156 15.8125 "/>
<path style=" stroke:none;fill-rule:nonzero;fill:rgb(10.980392%,13.333334%,10.196079%);fill-opacity:1;" d="M 11.078125 27.640625 C 11.078125 27.292969 10.761719 27.011719 10.375 27.011719 C 9.984375 27.011719 9.667969 27.292969 9.667969 27.640625 C 9.667969 27.992188 9.984375 28.273438 10.375 28.273438 C 10.761719 28.273438 11.078125 27.992188 11.078125 27.640625 Z M 11.078125 27.640625 "/>
<path style=" stroke:none;fill-rule:nonzero;fill:rgb(10.980392%,13.333334%,10.196079%);fill-opacity:1;" d="M 9.917969 5.441406 C 9.917969 5.09375 9.601562 4.8125 9.210938 4.8125 C 8.824219 4.8125 8.507812 5.09375 8.507812 5.441406 C 8.507812 5.792969 8.824219 6.074219 9.210938 6.074219 C 9.601562 6.074219 9.917969 5.792969 9.917969 5.441406 Z M 9.917969 5.441406 "/>
<path style=" stroke:none;fill-rule:nonzero;fill:rgb(68.235296%,29.411766%,16.862746%);fill-opacity:1;" d="M 6.003906 16.753906 C 6.390625 16.753906 6.707031 17.035156 6.707031 17.386719 C 6.707031 17.734375 6.390625 18.015625 6.003906 18.015625 C 5.613281 18.015625 5.296875 17.734375 5.296875 17.386719 C 5.296875 17.21875 5.371094 17.054688 5.503906 16.9375 C 5.636719 16.820312 5.816406 16.753906 6.003906 16.753906 M 6.003906 15.8125 C 5.292969 15.8125 4.652344 16.195312 4.378906 16.78125 C 4.109375 17.371094 4.257812 18.046875 4.761719 18.496094 C 5.261719 18.949219 6.019531 19.082031 6.671875 18.839844 C 7.328125 18.59375 7.757812 18.019531 7.757812 17.386719 C 7.757812 16.515625 6.972656 15.8125 6.003906 15.8125 Z M 6.003906 15.8125 "/>
<path style=" stroke:none;fill-rule:nonzero;fill:rgb(11.764706%,12.54902%,10.196079%);fill-opacity:1;" d="M 7.84375 26.042969 L 17.507812 17.378906 L 14.585938 14.757812 L 4.917969 23.421875 C 3.84375 23.710938 3.148438 24.640625 3.257812 25.640625 C 3.367188 26.640625 4.25 27.433594 5.367188 27.53125 C 6.480469 27.628906 7.519531 27.003906 7.84375 26.042969 Z M 7.84375 26.042969 "/>
<path style=" stroke:none;fill-rule:nonzero;fill:rgb(79.607844%,61.960787%,43.921569%);fill-opacity:1;" d="M 6.492188 26.230469 C 6 26.671875 5.207031 26.6875 4.691406 26.269531 L 14.992188 17.039062 L 15.628906 17.605469 L 6.871094 25.457031 C 6.855469 25.75 6.722656 26.023438 6.492188 26.230469 Z M 6.492188 26.230469 "/>
<path style=" stroke:none;fill-rule:nonzero;fill:rgb(99.607843%,93.725491%,82.352942%);fill-opacity:1;" d="M 4.738281 24.660156 C 4.246094 25.097656 4.226562 25.808594 4.691406 26.269531 L 14.992188 17.039062 L 14.359375 16.46875 L 5.601562 24.316406 C 5.273438 24.332031 4.96875 24.453125 4.738281 24.660156 Z M 4.738281 24.660156 "/>
<path style=" stroke:none;fill-rule:nonzero;fill:rgb(11.764706%,12.54902%,10.196079%);fill-opacity:1;" d="M 24.164062 26.042969 L 14.496094 17.378906 L 17.421875 14.757812 L 27.089844 23.421875 C 28.164062 23.710938 28.859375 24.640625 28.75 25.640625 C 28.640625 26.640625 27.757812 27.433594 26.640625 27.53125 C 25.523438 27.628906 24.488281 27.003906 24.164062 26.042969 Z M 24.164062 26.042969 "/>
<path style=" stroke:none;fill-rule:nonzero;fill:rgb(79.607844%,61.960787%,43.921569%);fill-opacity:1;" d="M 25.515625 26.230469 C 26.007812 26.671875 26.796875 26.691406 27.3125 26.269531 L 17.011719 17.039062 L 16.375 17.605469 L 25.136719 25.457031 C 25.148438 25.75 25.285156 26.023438 25.515625 26.230469 Z M 25.515625 26.230469 "/>
<path style=" stroke:none;fill-rule:nonzero;fill:rgb(99.607843%,93.725491%,82.352942%);fill-opacity:1;" d="M 27.269531 24.660156 C 27.761719 25.101562 27.78125 25.808594 27.3125 26.269531 L 17.011719 17.039062 L 17.648438 16.46875 L 26.40625 24.316406 C 26.730469 24.332031 27.039062 24.453125 27.269531 24.660156 Z M 27.269531 24.660156 "/>
<path style=" stroke:none;fill-rule:nonzero;fill:rgb(100%,93.333334%,80.784315%);fill-opacity:1;" d="M 13.707031 1.050781 L 14.453125 1.492188 L 17.734375 1.492188 L 18.265625 1.175781 L 20.226562 7.476562 L 19.238281 10.296875 L 17.3125 12.023438 L 16.972656 15.929688 L 18.160156 25.757812 L 18.476562 29.421875 L 16.65625 30.640625 L 14.820312 30.261719 L 13.929688 29.253906 L 13.976562 26.515625 L 15.132812 12.65625 L 13.707031 10.761719 L 11.765625 7.515625 L 13.707031 1.050781 "/>
<path style=" stroke:none;fill-rule:nonzero;fill:rgb(78.823531%,61.960787%,43.529412%);fill-opacity:1;" d="M 18.34375 5.484375 L 18.71875 7.632812 C 18.71875 7.632812 18.203125 9.613281 17.121094 10.074219 C 17.121094 10.074219 15.757812 11.046875 15.59375 14.160156 L 15.964844 15.089844 L 15.964844 29.285156 C 15.964844 29.285156 16.210938 30.085938 16.738281 30.253906 L 17.828125 29.957031 L 18.15625 28.988281 L 18.109375 24.3125 L 17.777344 21.65625 L 17.15625 16.199219 L 17.15625 14.457031 L 17.6875 11.339844 L 20.082031 8.515625 L 19.566406 4.765625 L 18.625 4.136719 Z M 18.34375 5.484375 "/>
<path style=" stroke:none;fill-rule:nonzero;fill:rgb(12.156863%,13.725491%,10.588235%);fill-opacity:1;" d="M 15.058594 13.9375 L 16.9375 13.9375 L 16.9375 15.035156 L 15.058594 15.035156 Z M 15.058594 13.9375 "/>
<path style=" stroke:none;fill-rule:nonzero;fill:rgb(68.627453%,29.019609%,16.078432%);fill-opacity:1;" d="M 15.960938 21.296875 L 15.960938 29.285156 C 15.960938 29.285156 16.625 29.308594 16.734375 28.65625 Z M 15.960938 21.296875 "/>
<path style=" stroke:none;fill-rule:nonzero;fill:rgb(68.627453%,29.019609%,16.078432%);fill-opacity:1;" d="M 15.980469 21.296875 L 15.980469 29.285156 C 15.980469 29.285156 15.320312 29.308594 15.207031 28.65625 Z M 15.980469 21.296875 "/>
<path style=" stroke:none;fill-rule:nonzero;fill:rgb(10.588235%,12.941177%,9.803922%);fill-opacity:1;" d="M 15.996094 31.265625 C 15.996094 31.265625 18.953125 31.011719 18.90625 28.609375 L 17.453125 14.960938 C 17.453125 14.960938 17.03125 12.183594 18.910156 11.085938 C 18.910156 11.085938 21.023438 9.867188 20.742188 7.421875 L 18.765625 0.851562 L 17.636719 1.527344 L 19.515625 7 C 19.515625 7 19.921875 9.191406 18.378906 10.117188 C 18.378906 10.117188 15.664062 11.214844 16.414062 15.089844 L 17.6875 28.441406 C 17.6875 28.441406 17.644531 30.210938 15.996094 30.210938 Z M 15.996094 31.265625 "/>
<path style=" stroke:none;fill-rule:nonzero;fill:rgb(12.54902%,12.941177%,10.196079%);fill-opacity:1;" d="M 15.996094 31.265625 C 15.996094 31.265625 13.039062 31.011719 13.085938 28.609375 L 14.539062 14.960938 C 14.539062 14.960938 14.964844 12.183594 13.085938 11.085938 C 13.085938 11.085938 10.972656 9.867188 11.253906 7.421875 L 13.230469 0.851562 L 14.355469 1.523438 L 12.476562 7 C 12.476562 7 12.074219 9.191406 13.613281 10.117188 C 13.613281 10.117188 16.332031 11.210938 15.578125 15.089844 L 14.308594 28.441406 C 14.308594 28.441406 14.347656 30.210938 15.996094 30.210938 Z M 15.996094 31.265625 "/>
<path style=" stroke:none;fill-rule:nonzero;fill:rgb(10.588235%,12.941177%,9.803922%);fill-opacity:1;" d="M 15.996094 1.535156 L 15.4375 1.535156 L 15.4375 7.726562 C 15.4375 7.726562 15.476562 8.023438 15.996094 8.023438 C 16.515625 8.023438 16.558594 7.726562 16.558594 7.726562 L 16.558594 1.535156 Z M 15.996094 1.535156 "/>
<path style=" stroke:none;fill-rule:nonzero;fill:rgb(10.588235%,12.941177%,9.803922%);fill-opacity:1;" d="M 18.203125 1.535156 L 17.640625 1.535156 L 17.640625 7.726562 C 17.640625 7.726562 17.683594 8.023438 18.203125 8.023438 C 18.722656 8.023438 18.761719 7.726562 18.761719 7.726562 L 18.761719 1.535156 Z M 18.203125 1.535156 "/>
<path style=" stroke:none;fill-rule:nonzero;fill:rgb(10.588235%,12.941177%,9.803922%);fill-opacity:1;" d="M 13.78125 1.535156 L 13.21875 1.535156 L 13.21875 7.726562 C 13.21875 7.726562 13.257812 8.023438 13.78125 8.023438 C 14.300781 8.023438 14.339844 7.726562 14.339844 7.726562 L 14.339844 1.535156 Z M 13.78125 1.535156 "/>
</g>
</svg>
