<svg xml:space="preserve" viewBox="250.56 209.52 578.88 645.8399999999999" version="1.1" xmlns:xlink="http://www.w3.org/1999/xlink" xmlns="http://www.w3.org/2000/svg" style="max-height: 500px" width="578.88" height="645.8399999999999">
<desc>Created with Fabric.js 5.2.4</desc>
<defs>
</defs>
<rect fill="transparent" height="100%" width="100%" y="0" x="0"/>
<g id="f162a95a-ecf9-4a3a-af70-55bc89656e5c" transform="matrix(1 0 0 1 540 540)">
<rect height="1080" width="1080" ry="0" rx="0" y="-540" x="-540" style="stroke: none; stroke-width: 1; stroke-dasharray: none; stroke-linecap: butt; stroke-dashoffset: 0; stroke-linejoin: miter; stroke-miterlimit: 4; fill: rgb(255,238,206); fill-rule: nonzero; opacity: 1;"/>
</g>
<g id="a794749a-d116-4659-9284-8321a65020b0" transform="matrix(1 0 0 1 540 540)">
</g>
<g transform="matrix(1 0 0 1 540 540)">
<g style="">
		<g transform="matrix(1 0 0 1 0 0)">
<rect height="841.89" width="595.28" ry="0" rx="0" y="-420.945" x="-297.64" style="stroke: none; stroke-width: 1; stroke-dasharray: none; stroke-linecap: butt; stroke-dashoffset: 0; stroke-linejoin: miter; stroke-miterlimit: 4; fill: rgb(255,238,206); fill-rule: nonzero; opacity: 1;"/>
</g>
		<g transform="matrix(1 0 0 1 96.46 -10.14)">
<path stroke-linecap="round" d="M 384.71 452.05 L 451.5 369.56 C 451.5 369.56 356.90999999999997 426.34000000000003 336.7 410.8 L 384.7 452.05" transform="translate(-394.1, -410.81)" style="stroke: none; stroke-width: 1; stroke-dasharray: none; stroke-linecap: butt; stroke-dashoffset: 0; stroke-linejoin: miter; stroke-miterlimit: 4; fill: rgb(203,158,112); fill-rule: nonzero; opacity: 1;"/>
</g>
		<g transform="matrix(1 0 0 1 -134.1 -85.39)">
<polygon points="96.63,74.83 -96.63,-116.5 -87.05,-39.97 46.46,116.5 96.63,74.83" style="stroke: none; stroke-width: 1; stroke-dasharray: none; stroke-linecap: butt; stroke-dashoffset: 0; stroke-linejoin: miter; stroke-miterlimit: 4; fill: rgb(174,75,43); fill-rule: nonzero; opacity: 1;"/>
</g>
		<g transform="matrix(1 0 0 1 -129.73 -114.73)">
<path stroke-linecap="round" d="M 210 452.05 L 215.1 424.83000000000004 L 108.8 322.83000000000004 C 108.8 322.83000000000004 64.59 285.38 78.19 212.25 L 267 394.22 L 280.61 380.62 L 55.23 160.38 L 55.23 249.66 C 55.23 249.66 52.68 301.53 95.22999999999999 339.8 Z" transform="translate(-167.91, -306.22)" style="stroke: none; stroke-width: 1; stroke-dasharray: none; stroke-linecap: butt; stroke-dashoffset: 0; stroke-linejoin: miter; stroke-miterlimit: 4; fill: rgb(27,33,25); fill-rule: nonzero; opacity: 1;"/>
</g>
		<g transform="matrix(1 0 0 1 129.18 -114.73)">
<path stroke-linecap="round" d="M 384.71 452.05 L 379.60999999999996 424.83000000000004 L 485.90999999999997 322.83000000000004 C 485.90999999999997 322.83000000000004 530.12 285.4200000000001 516.52 212.29000000000002 L 327.74 394.29 L 314.14 380.69 L 539.48 160.38 L 539.48 249.66 C 539.48 249.66 542.03 301.53 499.48 339.8 Z" transform="translate(-426.82, -306.22)" style="stroke: none; stroke-width: 1; stroke-dasharray: none; stroke-linecap: butt; stroke-dashoffset: 0; stroke-linejoin: miter; stroke-miterlimit: 4; fill: rgb(27,33,25); fill-rule: nonzero; opacity: 1;"/>
</g>
		<g transform="matrix(1 0 0 1 100.28 227.54)">
<circle r="12.76" cy="0" cx="0" style="stroke: none; stroke-width: 1; stroke-dasharray: none; stroke-linecap: butt; stroke-dashoffset: 0; stroke-linejoin: miter; stroke-miterlimit: 4; fill: rgb(28,34,26); fill-rule: nonzero; opacity: 1;"/>
</g>
		<g transform="matrix(1 0 0 1 121.29 -220.6)">
<circle r="12.76" cy="0" cx="0" style="stroke: none; stroke-width: 1; stroke-dasharray: none; stroke-linecap: butt; stroke-dashoffset: 0; stroke-linejoin: miter; stroke-miterlimit: 4; fill: rgb(28,34,26); fill-rule: nonzero; opacity: 1;"/>
</g>
		<g transform="matrix(1 0 0 1 179.35 20.48)">
<path stroke-linecap="round" d="M 477 428.66 C 482.16093824377293 428.66 486.8136972734927 431.7688741910449 488.788702834844 436.53695940302146 C 490.7637083961953 441.305044614998 489.6720169573972 446.79334809848353 486.02268252794033 450.44268252794035 C 482.3733480984835 454.09201695739716 476.885044614998 455.1837083961953 472.11695940302144 453.208702834844 C 467.3488741910449 451.23369727349274 464.24 446.58093824377295 464.24 441.42 C 464.23734407416015 438.0350240804207 465.58084445156703 434.7879247788801 467.9743846152235 432.39438461522354 C 470.3679247788801 430.00084445156705 473.6150240804207 428.65734407416016 477 428.66 M 477 409.66 C 464.153369863444 409.65595509106635 452.56945266715917 417.3914655909307 447.6504571420458 429.259043492536 C 442.73146161693245 441.1266213941414 445.4462435111493 454.7888034881821 454.52875281735237 463.87417342723757 C 463.61126212355543 472.95954336629296 477.2725886254019 475.6786274977316 489.1417149845061 470.7633694477026 C 501.0108413436103 465.84811139767356 508.74999936320705 454.266630773349 508.75 441.42 C 508.72797441993225 423.8924705749239 494.5275216198846 409.6875451913172 477 409.66 Z" transform="translate(-476.99, -441.42)" style="stroke: none; stroke-width: 1; stroke-dasharray: none; stroke-linecap: butt; stroke-dashoffset: 0; stroke-linejoin: miter; stroke-miterlimit: 4; fill: rgb(174,75,43); fill-rule: nonzero; opacity: 1;"/>
</g>
		<g transform="matrix(1 0 0 1 -101.75 227.54)">
<circle r="12.76" cy="0" cx="0" style="stroke: none; stroke-width: 1; stroke-dasharray: none; stroke-linecap: butt; stroke-dashoffset: 0; stroke-linejoin: miter; stroke-miterlimit: 4; fill: rgb(28,34,26); fill-rule: nonzero; opacity: 1;"/>
</g>
		<g transform="matrix(1 0 0 1 -122.76 -220.6)">
<circle r="12.76" cy="0" cx="0" style="stroke: none; stroke-width: 1; stroke-dasharray: none; stroke-linecap: butt; stroke-dashoffset: 0; stroke-linejoin: miter; stroke-miterlimit: 4; fill: rgb(28,34,26); fill-rule: nonzero; opacity: 1;"/>
</g>
		<g transform="matrix(1 0 0 1 -180.84 20.48)">
<path stroke-linecap="round" d="M 116.81 428.66 C 123.85715340784093 428.66 129.57 434.3728465921591 129.57 441.42 C 129.57 448.46715340784095 123.85715340784093 454.18 116.81 454.18 C 109.76284659215908 454.18 104.05 448.46715340784095 104.05 441.42 C 104.04734407416014 438.0350240804207 105.390844451567 434.7879247788801 107.78438461522353 432.39438461522354 C 110.17792477888005 430.00084445156705 113.42502408042068 428.65734407416016 116.81 428.66 M 116.81 409.66 C 103.96336986344402 409.65595509106635 92.37945266715916 417.3914655909307 87.46045714204581 429.259043492536 C 82.54146161693245 441.1266213941414 85.25624351114931 454.7888034881821 94.33875281735237 463.87417342723757 C 103.42126212355544 472.95954336629296 117.08258862540193 475.6786274977316 128.9517149845061 470.7633694477026 C 140.8208413436103 465.84811139767356 148.55999936320703 454.266630773349 148.56 441.42 C 148.53797441993225 423.8924705749239 134.3375216198846 409.6875451913172 116.81000000000002 409.66 Z" transform="translate(-116.8, -441.42)" style="stroke: none; stroke-width: 1; stroke-dasharray: none; stroke-linecap: butt; stroke-dashoffset: 0; stroke-linejoin: miter; stroke-miterlimit: 4; fill: rgb(174,75,43); fill-rule: nonzero; opacity: 1;"/>
</g>
		<g transform="matrix(1 0 0 1 -101.67 96.46)">
<path stroke-linecap="round" d="M 150.1 616.2 L 325 441.26 L 272.09000000000003 388.35 L 97.18 563.29 C 77.74911255396285 569.1361547251462 65.16576043710114 587.9081857398934 67.14064542700093 608.1031539569415 C 69.11553041690073 628.2981221739896 85.09718267567975 644.276754468245 105.29252375046688 646.2478229307621 C 125.48786482525402 648.2188913932791 144.2575174736032 635.6319919189892 150.1 616.2 Z" transform="translate(-195.97, -517.4)" style="stroke: none; stroke-width: 1; stroke-dasharray: none; stroke-linecap: butt; stroke-dashoffset: 0; stroke-linejoin: miter; stroke-miterlimit: 4; fill: rgb(30,32,26); fill-rule: nonzero; opacity: 1;"/>
</g>
		<g transform="matrix(1 0 0 1 -105.58 109.72)">
<path stroke-linecap="round" d="M 125.64 620 C 116.74917352708249 628.8959418601416 102.44268266067947 629.2522843448214 93.12 620.81 L 279.49 434.41 L 291 445.9 L 132.52 604.37 C 132.27170007056105 610.2593186369885 129.8154877381907 615.839347525789 125.64 620 Z" transform="translate(-192.06, -530.66)" style="stroke: none; stroke-width: 1; stroke-dasharray: none; stroke-linecap: butt; stroke-dashoffset: 0; stroke-linejoin: miter; stroke-miterlimit: 4; fill: rgb(203,158,112); fill-rule: nonzero; opacity: 1;"/>
</g>
		<g transform="matrix(1 0 0 1 -114.39 100.91)">
<path stroke-linecap="round" d="M 93.92 588.26 C 85.02566437221081 597.1569234177074 84.67375040633398 611.4666250551741 93.11999999999999 620.79 L 279.49 434.41 L 268 422.91 L 109.53 581.38 C 103.64768081025487 581.6332561928584 98.07564198657688 584.0890939319298 93.91999999999999 588.26 Z" transform="translate(-183.25, -521.85)" style="stroke: none; stroke-width: 1; stroke-dasharray: none; stroke-linecap: butt; stroke-dashoffset: 0; stroke-linejoin: miter; stroke-miterlimit: 4; fill: rgb(254,239,210); fill-rule: nonzero; opacity: 1;"/>
</g>
		<g transform="matrix(1 0 0 1 101.9 96.46)">
<path stroke-linecap="round" d="M 445.43 616.2 L 270.49 441.26 L 323.41 388.35 L 498.34 563.29 C 517.7742595491942 569.1314422084926 530.3629563365391 587.9028545889623 528.3909808420393 608.0999881467151 C 526.4190053475395 628.2971217044677 510.43712170446776 644.2790053475394 490.2399881467151 646.2509808420393 C 470.0428545889624 648.2229563365391 451.2714422084926 635.6342595491942 445.42999999999995 616.1999999999999 Z" transform="translate(-399.54, -517.4)" style="stroke: none; stroke-width: 1; stroke-dasharray: none; stroke-linecap: butt; stroke-dashoffset: 0; stroke-linejoin: miter; stroke-miterlimit: 4; fill: rgb(30,32,26); fill-rule: nonzero; opacity: 1;"/>
</g>
		<g transform="matrix(1 0 0 1 105.81 109.72)">
<path stroke-linecap="round" d="M 469.88 620 C 478.774219448548 628.897226258122 493.0839938485016 629.253540960365 502.40999999999997 620.81 L 316 434.41 L 304.5 445.90000000000003 L 463 604.37 C 463.25798400971223 610.2570633159932 465.7127159417328 615.8337290278365 469.88 620 Z" transform="translate(-403.45, -530.66)" style="stroke: none; stroke-width: 1; stroke-dasharray: none; stroke-linecap: butt; stroke-dashoffset: 0; stroke-linejoin: miter; stroke-miterlimit: 4; fill: rgb(203,158,112); fill-rule: nonzero; opacity: 1;"/>
</g>
		<g transform="matrix(1 0 0 1 114.62 100.91)">
<path stroke-linecap="round" d="M 501.61 588.26 C 510.49931723646046 597.1590737272785 510.8511315690764 611.4647240272733 502.41 620.79 L 316 434.41 L 327.5 422.91 L 486 581.38 C 491.88231918974515 581.6332561928584 497.45435801342313 584.0890939319298 501.61 588.26 Z" transform="translate(-412.26, -521.85)" style="stroke: none; stroke-width: 1; stroke-dasharray: none; stroke-linecap: butt; stroke-dashoffset: 0; stroke-linejoin: miter; stroke-miterlimit: 4; fill: rgb(254,239,210); fill-rule: nonzero; opacity: 1;"/>
</g>
		<g transform="matrix(1 0 0 1 0 -10.59)">
<polyline points="-41.4,-298.71 -27.95,-289.75 31.46,-289.75 41.08,-296.16 76.53,-168.99 58.67,-112.02 23.81,-77.16 17.66,1.69 39.11,200.06 44.9,274.04 11.9,298.7 -21.26,291.04 -37.42,270.64 -36.57,215.37 -15.61,-64.4 -41.4,-102.67 -76.53,-168.14 -41.4,-298.71" style="stroke: none; stroke-width: 1; stroke-dasharray: none; stroke-linecap: butt; stroke-dashoffset: 0; stroke-linejoin: miter; stroke-miterlimit: 4; fill: rgb(255,238,206); fill-rule: nonzero; opacity: 1;"/>
</g>
		<g transform="matrix(1 0 0 1 33.31 16.65)">
<path stroke-linecap="round" d="M 340.1 201.19 L 346.90000000000003 244.56 C 346.90000000000003 244.56 337.55 284.56 317.99 293.88 C 317.99 293.88 293.28000000000003 313.44 290.33 376.36 L 297.03 395.07 L 297.03 681.64 C 297.03 681.64 301.53999999999996 697.8 311.03 701.1999999999999 L 330.73999999999995 695.1999999999999 L 336.68999999999994 675.64 L 335.8399999999999 581.25 L 329.8399999999999 527.68 L 318.61 417.5 L 318.61 382.32 L 328.2 319.39 L 371.56 262.39 L 362.21 186.70999999999998 L 345.2 174 Z" transform="translate(-330.94, -437.6)" style="stroke: none; stroke-width: 1; stroke-dasharray: none; stroke-linecap: butt; stroke-dashoffset: 0; stroke-linejoin: miter; stroke-miterlimit: 4; fill: rgb(201,158,111); fill-rule: nonzero; opacity: 1;"/>
</g>
		<g transform="matrix(1 0 0 1 0 -38.05)">
<rect height="22.11" width="34.01" ry="0" rx="0" y="-11.055" x="-17.005" style="stroke: none; stroke-width: 1; stroke-dasharray: none; stroke-linecap: butt; stroke-dashoffset: 0; stroke-linejoin: miter; stroke-miterlimit: 4; fill: rgb(31,35,27); fill-rule: nonzero; opacity: 1;"/>
</g>
		<g transform="matrix(1 0 0 1 6.36 180.07)">
<path stroke-linecap="round" d="M 297 520.39 L 297 681.64 C 297 681.64 309 682.16 311 668.93 Z" transform="translate(-304, -601.02)" style="stroke: none; stroke-width: 1; stroke-dasharray: none; stroke-linecap: butt; stroke-dashoffset: 0; stroke-linejoin: miter; stroke-miterlimit: 4; fill: rgb(175,74,41); fill-rule: nonzero; opacity: 1;"/>
</g>
		<g transform="matrix(1 0 0 1 -7.31 180.07)">
<path stroke-linecap="round" d="M 297.33 520.39 L 297.33 681.64 C 297.33 681.64 285.39 682.16 283.33 668.93 Z" transform="translate(-290.33, -601.02)" style="stroke: none; stroke-width: 1; stroke-dasharray: none; stroke-linecap: butt; stroke-dashoffset: 0; stroke-linejoin: miter; stroke-miterlimit: 4; fill: rgb(175,74,41); fill-rule: nonzero; opacity: 1;"/>
</g>
		<g transform="matrix(1 0 0 1 43.16 -6.31)">
<path stroke-linecap="round" d="M 297.64 721.61 C 297.64 721.61 351.15 716.5 350.3 668 L 324 392.52 C 324 392.52 316.33 336.4 350.33 314.28999999999996 C 350.33 314.28999999999996 388.59 289.62999999999994 383.49 240.28999999999996 L 347.75 107.65 L 327.34 121.26 L 361.34 231.8 C 361.34 231.8 368.66999999999996 276.02 340.77 294.73 C 340.77 294.73 291.61 316.84000000000003 305.21999999999997 395.07000000000005 L 328.21999999999997 664.6300000000001 C 328.21999999999997 664.6300000000001 327.47999999999996 700.3500000000001 297.65999999999997 700.3500000000001 Z" transform="translate(-340.8, -414.63)" style="stroke: none; stroke-width: 1; stroke-dasharray: none; stroke-linecap: butt; stroke-dashoffset: 0; stroke-linejoin: miter; stroke-miterlimit: 4; fill: rgb(27,33,25); fill-rule: nonzero; opacity: 1;"/>
</g>
		<g transform="matrix(1 0 0 1 -43.12 -6.32)">
<path stroke-linecap="round" d="M 297.64 721.61 C 297.64 721.61 244.12 716.5 245 668 L 271.3 392.52 C 271.3 392.52 279 336.4 245 314.29 C 245 314.29 206.75 289.63 211.85 240.29000000000002 L 247.56 107.63000000000002 L 267.97 121.24000000000002 L 233.97000000000003 231.78000000000003 C 233.97000000000003 231.78000000000003 226.64000000000001 276 254.54000000000002 294.71000000000004 C 254.54000000000002 294.71000000000004 303.70000000000005 316.82000000000005 290.09000000000003 395.05000000000007 L 267.09000000000003 664.6100000000001 C 267.09000000000003 664.6100000000001 267.83000000000004 700.3300000000002 297.65000000000003 700.3300000000002 Z" transform="translate(-254.52, -414.62)" style="stroke: none; stroke-width: 1; stroke-dasharray: none; stroke-linecap: butt; stroke-dashoffset: 0; stroke-linejoin: miter; stroke-miterlimit: 4; fill: rgb(32,33,26); fill-rule: nonzero; opacity: 1;"/>
</g>
		<g transform="matrix(1 0 0 1 0 -234)">
<path stroke-linecap="round" d="M 297.64 121.47 L 287.49 121.47 L 287.49 246.47 C 287.49 246.47 288.23 252.42 297.64 252.42 C 307.04999999999995 252.42 307.78999999999996 246.47 307.78999999999996 246.47 L 307.78999999999996 121.47 Z" transform="translate(-297.64, -186.94)" style="stroke: none; stroke-width: 1; stroke-dasharray: none; stroke-linecap: butt; stroke-dashoffset: 0; stroke-linejoin: miter; stroke-miterlimit: 4; fill: rgb(27,33,25); fill-rule: nonzero; opacity: 1;"/>
</g>
		<g transform="matrix(1 0 0 1 39.91 -234)">
<path stroke-linecap="round" d="M 337.55 121.47 L 327.4 121.47 L 327.4 246.47 C 327.4 246.47 328.14 252.42 337.54999999999995 252.42 C 346.9599999999999 252.42 347.69999999999993 246.47 347.69999999999993 246.47 L 347.69999999999993 121.47 Z" transform="translate(-337.55, -186.94)" style="stroke: none; stroke-width: 1; stroke-dasharray: none; stroke-linecap: butt; stroke-dashoffset: 0; stroke-linejoin: miter; stroke-miterlimit: 4; fill: rgb(27,33,25); fill-rule: nonzero; opacity: 1;"/>
</g>
		<g transform="matrix(1 0 0 1 -40.12 -234)">
<path stroke-linecap="round" d="M 257.52 121.47 L 247.37 121.47 L 247.37 246.47 C 247.37 246.47 248.11 252.42 257.52 252.42 C 266.92999999999995 252.42 267.66999999999996 246.47 267.66999999999996 246.47 L 267.66999999999996 121.47 Z" transform="translate(-257.52, -186.94)" style="stroke: none; stroke-width: 1; stroke-dasharray: none; stroke-linecap: butt; stroke-dashoffset: 0; stroke-linejoin: miter; stroke-miterlimit: 4; fill: rgb(27,33,25); fill-rule: nonzero; opacity: 1;"/>
</g>
</g>
</g>
<g transform="matrix(NaN NaN NaN NaN 0 0)">
<g style="">
</g>
</g>
</svg>